<mxfile host="65bd71144e">
    <diagram id="HZmxY4WNw8024BE34JRR" name="Page-1">
        <mxGraphModel dx="781" dy="455" grid="1" gridSize="10" guides="1" tooltips="1" connect="1" arrows="1" fold="1" page="1" pageScale="1" pageWidth="827" pageHeight="1169" background="#FFFFFF" math="0" shadow="1">
            <root>
                <mxCell id="0"/>
                <mxCell id="1" parent="0"/>
                <mxCell id="TiH0geAo-olVfuEoiiwe-1" value="Departamento" style="swimlane;fontStyle=1;align=center;verticalAlign=top;childLayout=stackLayout;horizontal=1;startSize=26;horizontalStack=0;resizeParent=1;resizeParentMax=0;resizeLast=0;collapsible=1;marginBottom=0;fillColor=#d5e8d4;strokeColor=#82b366;gradientColor=#97d077;rounded=1;shadow=1;" parent="1" vertex="1">
                    <mxGeometry x="10" y="32" width="220" height="192" as="geometry"/>
                </mxCell>
                <mxCell id="TiH0geAo-olVfuEoiiwe-2" value="- idDepartamento: UUID" style="text;strokeColor=none;fillColor=none;align=left;verticalAlign=top;spacingLeft=4;spacingRight=4;overflow=hidden;rotatable=0;points=[[0,0.5],[1,0.5]];portConstraint=eastwest;rounded=1;shadow=1;" parent="TiH0geAo-olVfuEoiiwe-1" vertex="1">
                    <mxGeometry y="26" width="220" height="26" as="geometry"/>
                </mxCell>
                <mxCell id="ypCZ3P_r6VAvFXWBrY6j-39" value="- nombre: String" style="text;strokeColor=none;fillColor=none;align=left;verticalAlign=top;spacingLeft=4;spacingRight=4;overflow=hidden;rotatable=0;points=[[0,0.5],[1,0.5]];portConstraint=eastwest;rounded=1;shadow=1;" parent="TiH0geAo-olVfuEoiiwe-1" vertex="1">
                    <mxGeometry y="52" width="220" height="26" as="geometry"/>
                </mxCell>
                <mxCell id="TiH0geAo-olVfuEoiiwe-6" value="- presupuesto: Double" style="text;strokeColor=none;fillColor=none;align=left;verticalAlign=top;spacingLeft=4;spacingRight=4;overflow=hidden;rotatable=0;points=[[0,0.5],[1,0.5]];portConstraint=eastwest;rounded=1;shadow=1;" parent="TiH0geAo-olVfuEoiiwe-1" vertex="1">
                    <mxGeometry y="78" width="220" height="26" as="geometry"/>
                </mxCell>
                <mxCell id="TiH0geAo-olVfuEoiiwe-9" value="- presupuestoAnual: Double" style="text;strokeColor=none;fillColor=none;align=left;verticalAlign=top;spacingLeft=4;spacingRight=4;overflow=hidden;rotatable=0;points=[[0,0.5],[1,0.5]];portConstraint=eastwest;rounded=1;shadow=1;" parent="TiH0geAo-olVfuEoiiwe-1" vertex="1">
                    <mxGeometry y="104" width="220" height="26" as="geometry"/>
                </mxCell>
                <mxCell id="TiH0geAo-olVfuEoiiwe-3" value="" style="line;strokeWidth=1;fillColor=none;align=left;verticalAlign=middle;spacingTop=-1;spacingLeft=3;spacingRight=3;rotatable=0;labelPosition=right;points=[];portConstraint=eastwest;rounded=1;shadow=1;" parent="TiH0geAo-olVfuEoiiwe-1" vertex="1">
                    <mxGeometry y="130" width="220" height="8" as="geometry"/>
                </mxCell>
                <mxCell id="TiH0geAo-olVfuEoiiwe-4" value="+ Getters And Setters" style="text;strokeColor=none;fillColor=none;align=left;verticalAlign=top;spacingLeft=4;spacingRight=4;overflow=hidden;rotatable=0;points=[[0,0.5],[1,0.5]];portConstraint=eastwest;rounded=1;shadow=1;" parent="TiH0geAo-olVfuEoiiwe-1" vertex="1">
                    <mxGeometry y="138" width="220" height="26" as="geometry"/>
                </mxCell>
                <mxCell id="TiH0geAo-olVfuEoiiwe-10" value="+ Constructor" style="text;strokeColor=none;fillColor=none;align=left;verticalAlign=top;spacingLeft=4;spacingRight=4;overflow=hidden;rotatable=0;points=[[0,0.5],[1,0.5]];portConstraint=eastwest;rounded=1;shadow=1;" parent="TiH0geAo-olVfuEoiiwe-1" vertex="1">
                    <mxGeometry y="164" width="220" height="28" as="geometry"/>
                </mxCell>
                <mxCell id="TiH0geAo-olVfuEoiiwe-11" value="Proyecto" style="swimlane;fontStyle=1;align=center;verticalAlign=top;childLayout=stackLayout;horizontal=1;startSize=26;horizontalStack=0;resizeParent=1;resizeParentMax=0;resizeLast=0;collapsible=1;marginBottom=0;fillColor=#d5e8d4;strokeColor=#82b366;gradientColor=#97d077;rounded=1;shadow=1;" parent="1" vertex="1">
                    <mxGeometry x="230" y="306" width="230" height="216" as="geometry"/>
                </mxCell>
                <mxCell id="TiH0geAo-olVfuEoiiwe-12" value="- idProyecto: UUID" style="text;strokeColor=none;fillColor=none;align=left;verticalAlign=top;spacingLeft=4;spacingRight=4;overflow=hidden;rotatable=0;points=[[0,0.5],[1,0.5]];portConstraint=eastwest;rounded=1;shadow=1;" parent="TiH0geAo-olVfuEoiiwe-11" vertex="1">
                    <mxGeometry y="26" width="230" height="26" as="geometry"/>
                </mxCell>
                <mxCell id="ypCZ3P_r6VAvFXWBrY6j-42" value="- nombre: String" style="text;strokeColor=none;fillColor=none;align=left;verticalAlign=top;spacingLeft=4;spacingRight=4;overflow=hidden;rotatable=0;points=[[0,0.5],[1,0.5]];portConstraint=eastwest;rounded=1;shadow=1;" parent="TiH0geAo-olVfuEoiiwe-11" vertex="1">
                    <mxGeometry y="52" width="230" height="26" as="geometry"/>
                </mxCell>
                <mxCell id="TiH0geAo-olVfuEoiiwe-14" value="- presupuesto: Double" style="text;strokeColor=none;fillColor=none;align=left;verticalAlign=top;spacingLeft=4;spacingRight=4;overflow=hidden;rotatable=0;points=[[0,0.5],[1,0.5]];portConstraint=eastwest;rounded=1;shadow=1;" parent="TiH0geAo-olVfuEoiiwe-11" vertex="1">
                    <mxGeometry y="78" width="230" height="26" as="geometry"/>
                </mxCell>
                <mxCell id="TiH0geAo-olVfuEoiiwe-15" value="- fechaInicio: Date" style="text;strokeColor=none;fillColor=none;align=left;verticalAlign=top;spacingLeft=4;spacingRight=4;overflow=hidden;rotatable=0;points=[[0,0.5],[1,0.5]];portConstraint=eastwest;rounded=1;shadow=1;" parent="TiH0geAo-olVfuEoiiwe-11" vertex="1">
                    <mxGeometry y="104" width="230" height="26" as="geometry"/>
                </mxCell>
                <mxCell id="TiH0geAo-olVfuEoiiwe-16" value="- fechaFin: Date" style="text;strokeColor=none;fillColor=none;align=left;verticalAlign=top;spacingLeft=4;spacingRight=4;overflow=hidden;rotatable=0;points=[[0,0.5],[1,0.5]];portConstraint=eastwest;rounded=1;shadow=1;" parent="TiH0geAo-olVfuEoiiwe-11" vertex="1">
                    <mxGeometry y="130" width="230" height="26" as="geometry"/>
                </mxCell>
                <mxCell id="TiH0geAo-olVfuEoiiwe-18" value="" style="line;strokeWidth=1;fillColor=none;align=left;verticalAlign=middle;spacingTop=-1;spacingLeft=3;spacingRight=3;rotatable=0;labelPosition=right;points=[];portConstraint=eastwest;rounded=1;shadow=1;" parent="TiH0geAo-olVfuEoiiwe-11" vertex="1">
                    <mxGeometry y="156" width="230" height="8" as="geometry"/>
                </mxCell>
                <mxCell id="TiH0geAo-olVfuEoiiwe-19" value="+ Getters And Setters" style="text;strokeColor=none;fillColor=none;align=left;verticalAlign=top;spacingLeft=4;spacingRight=4;overflow=hidden;rotatable=0;points=[[0,0.5],[1,0.5]];portConstraint=eastwest;rounded=1;shadow=1;" parent="TiH0geAo-olVfuEoiiwe-11" vertex="1">
                    <mxGeometry y="164" width="230" height="26" as="geometry"/>
                </mxCell>
                <mxCell id="TiH0geAo-olVfuEoiiwe-20" value="+ Constructor " style="text;strokeColor=none;fillColor=none;align=left;verticalAlign=top;spacingLeft=4;spacingRight=4;overflow=hidden;rotatable=0;points=[[0,0.5],[1,0.5]];portConstraint=eastwest;rounded=1;shadow=1;" parent="TiH0geAo-olVfuEoiiwe-11" vertex="1">
                    <mxGeometry y="190" width="230" height="26" as="geometry"/>
                </mxCell>
                <mxCell id="Bo5ASMbknL42rBoyFhP4-28" style="edgeStyle=orthogonalEdgeStyle;orthogonalLoop=1;jettySize=auto;html=1;endArrow=classic;endFill=1;shadow=1;startArrow=none;startFill=0;" parent="1" source="TiH0geAo-olVfuEoiiwe-23" target="TiH0geAo-olVfuEoiiwe-46" edge="1">
                    <mxGeometry relative="1" as="geometry">
                        <Array as="points">
                            <mxPoint x="950" y="970"/>
                        </Array>
                        <mxPoint x="570" y="860" as="targetPoint"/>
                    </mxGeometry>
                </mxCell>
                <mxCell id="89NfcNjuYtu2z_Fh4dar-20" style="edgeStyle=orthogonalEdgeStyle;rounded=1;orthogonalLoop=1;jettySize=auto;html=1;fontSize=18;endArrow=none;endFill=0;shadow=1;entryX=0.861;entryY=0.039;entryDx=0;entryDy=0;startArrow=classic;startFill=1;entryPerimeter=0;" parent="1" source="TiH0geAo-olVfuEoiiwe-23" target="89NfcNjuYtu2z_Fh4dar-2" edge="1">
                    <mxGeometry relative="1" as="geometry">
                        <Array as="points">
                            <mxPoint x="840" y="666"/>
                            <mxPoint x="844" y="666"/>
                            <mxPoint x="844" y="667"/>
                        </Array>
                        <mxPoint x="810" y="590" as="targetPoint"/>
                    </mxGeometry>
                </mxCell>
                <mxCell id="TiH0geAo-olVfuEoiiwe-23" value="Programador" style="swimlane;fontStyle=1;align=center;verticalAlign=top;childLayout=stackLayout;horizontal=1;startSize=26;horizontalStack=0;resizeParent=1;resizeParentMax=0;resizeLast=0;collapsible=1;marginBottom=0;fillColor=#d5e8d4;strokeColor=#82b366;gradientColor=#97d077;rounded=1;shadow=1;" parent="1" vertex="1">
                    <mxGeometry x="800" y="48" width="215" height="242" as="geometry"/>
                </mxCell>
                <mxCell id="TiH0geAo-olVfuEoiiwe-24" value="- idProgramador: UUID" style="text;strokeColor=none;fillColor=none;align=left;verticalAlign=top;spacingLeft=4;spacingRight=4;overflow=hidden;rotatable=0;points=[[0,0.5],[1,0.5]];portConstraint=eastwest;rounded=1;shadow=1;" parent="TiH0geAo-olVfuEoiiwe-23" vertex="1">
                    <mxGeometry y="26" width="215" height="26" as="geometry"/>
                </mxCell>
                <mxCell id="ypCZ3P_r6VAvFXWBrY6j-40" value="- nombre: String" style="text;strokeColor=none;fillColor=none;align=left;verticalAlign=top;spacingLeft=4;spacingRight=4;overflow=hidden;rotatable=0;points=[[0,0.5],[1,0.5]];portConstraint=eastwest;rounded=1;shadow=1;" parent="TiH0geAo-olVfuEoiiwe-23" vertex="1">
                    <mxGeometry y="52" width="215" height="26" as="geometry"/>
                </mxCell>
                <mxCell id="TiH0geAo-olVfuEoiiwe-25" value="- fechaAlta: Date" style="text;strokeColor=none;fillColor=none;align=left;verticalAlign=top;spacingLeft=4;spacingRight=4;overflow=hidden;rotatable=0;points=[[0,0.5],[1,0.5]];portConstraint=eastwest;rounded=1;shadow=1;" parent="TiH0geAo-olVfuEoiiwe-23" vertex="1">
                    <mxGeometry y="78" width="215" height="26" as="geometry"/>
                </mxCell>
                <mxCell id="TiH0geAo-olVfuEoiiwe-45" value="- salario: Double" style="text;strokeColor=none;fillColor=none;align=left;verticalAlign=top;spacingLeft=4;spacingRight=4;overflow=hidden;rotatable=0;points=[[0,0.5],[1,0.5]];portConstraint=eastwest;rounded=1;shadow=1;" parent="TiH0geAo-olVfuEoiiwe-23" vertex="1">
                    <mxGeometry y="104" width="215" height="26" as="geometry"/>
                </mxCell>
                <mxCell id="TiH0geAo-olVfuEoiiwe-32" value="- email: String" style="text;strokeColor=none;fillColor=none;align=left;verticalAlign=top;spacingLeft=4;spacingRight=4;overflow=hidden;rotatable=0;points=[[0,0.5],[1,0.5]];portConstraint=eastwest;rounded=1;shadow=1;" parent="TiH0geAo-olVfuEoiiwe-23" vertex="1">
                    <mxGeometry y="130" width="215" height="26" as="geometry"/>
                </mxCell>
                <mxCell id="TiH0geAo-olVfuEoiiwe-33" value="- contraseña: String " style="text;strokeColor=none;fillColor=none;align=left;verticalAlign=top;spacingLeft=4;spacingRight=4;overflow=hidden;rotatable=0;points=[[0,0.5],[1,0.5]];portConstraint=eastwest;rounded=1;shadow=1;" parent="TiH0geAo-olVfuEoiiwe-23" vertex="1">
                    <mxGeometry y="156" width="215" height="26" as="geometry"/>
                </mxCell>
                <mxCell id="TiH0geAo-olVfuEoiiwe-31" value="" style="line;strokeWidth=1;fillColor=none;align=left;verticalAlign=middle;spacingTop=-1;spacingLeft=3;spacingRight=3;rotatable=0;labelPosition=right;points=[];portConstraint=eastwest;rounded=1;shadow=1;" parent="TiH0geAo-olVfuEoiiwe-23" vertex="1">
                    <mxGeometry y="182" width="215" height="8" as="geometry"/>
                </mxCell>
                <mxCell id="12" value="+ Getters And Setters" style="text;strokeColor=none;fillColor=none;align=left;verticalAlign=top;spacingLeft=4;spacingRight=4;overflow=hidden;rotatable=0;points=[[0,0.5],[1,0.5]];portConstraint=eastwest;rounded=1;shadow=1;" parent="TiH0geAo-olVfuEoiiwe-23" vertex="1">
                    <mxGeometry y="190" width="215" height="26" as="geometry"/>
                </mxCell>
                <mxCell id="13" value="+ Constructor" style="text;strokeColor=none;fillColor=none;align=left;verticalAlign=top;spacingLeft=4;spacingRight=4;overflow=hidden;rotatable=0;points=[[0,0.5],[1,0.5]];portConstraint=eastwest;rounded=1;shadow=1;" parent="TiH0geAo-olVfuEoiiwe-23" vertex="1">
                    <mxGeometry y="216" width="215" height="26" as="geometry"/>
                </mxCell>
                <mxCell id="TiH0geAo-olVfuEoiiwe-34" value="Repositorio" style="swimlane;fontStyle=1;align=center;verticalAlign=top;childLayout=stackLayout;horizontal=1;startSize=26;horizontalStack=0;resizeParent=1;resizeParentMax=0;resizeLast=0;collapsible=1;marginBottom=0;fillColor=#d5e8d4;strokeColor=#82b366;gradientColor=#97d077;rounded=1;shadow=1;" parent="1" vertex="1">
                    <mxGeometry x="30" y="804" width="200" height="142" as="geometry"/>
                </mxCell>
                <mxCell id="TiH0geAo-olVfuEoiiwe-35" value="- idRepositorio: UUID" style="text;strokeColor=none;fillColor=none;align=left;verticalAlign=top;spacingLeft=4;spacingRight=4;overflow=hidden;rotatable=0;points=[[0,0.5],[1,0.5]];portConstraint=eastwest;rounded=1;shadow=1;" parent="TiH0geAo-olVfuEoiiwe-34" vertex="1">
                    <mxGeometry y="26" width="200" height="26" as="geometry"/>
                </mxCell>
                <mxCell id="TiH0geAo-olVfuEoiiwe-36" value="- fechaCreacion: Date" style="text;strokeColor=none;fillColor=none;align=left;verticalAlign=top;spacingLeft=4;spacingRight=4;overflow=hidden;rotatable=0;points=[[0,0.5],[1,0.5]];portConstraint=eastwest;rounded=1;shadow=1;" parent="TiH0geAo-olVfuEoiiwe-34" vertex="1">
                    <mxGeometry y="52" width="200" height="26" as="geometry"/>
                </mxCell>
                <mxCell id="TiH0geAo-olVfuEoiiwe-41" value="" style="line;strokeWidth=1;fillColor=none;align=left;verticalAlign=middle;spacingTop=-1;spacingLeft=3;spacingRight=3;rotatable=0;labelPosition=right;points=[];portConstraint=eastwest;rounded=1;shadow=1;" parent="TiH0geAo-olVfuEoiiwe-34" vertex="1">
                    <mxGeometry y="78" width="200" height="8" as="geometry"/>
                </mxCell>
                <mxCell id="TiH0geAo-olVfuEoiiwe-42" value="+ Getters And Setters" style="text;strokeColor=none;fillColor=none;align=left;verticalAlign=top;spacingLeft=4;spacingRight=4;overflow=hidden;rotatable=0;points=[[0,0.5],[1,0.5]];portConstraint=eastwest;rounded=1;shadow=1;" parent="TiH0geAo-olVfuEoiiwe-34" vertex="1">
                    <mxGeometry y="86" width="200" height="26" as="geometry"/>
                </mxCell>
                <mxCell id="TiH0geAo-olVfuEoiiwe-43" value="+ Constructor " style="text;strokeColor=none;fillColor=none;align=left;verticalAlign=top;spacingLeft=4;spacingRight=4;overflow=hidden;rotatable=0;points=[[0,0.5],[1,0.5]];portConstraint=eastwest;rounded=1;shadow=1;" parent="TiH0geAo-olVfuEoiiwe-34" vertex="1">
                    <mxGeometry y="112" width="200" height="30" as="geometry"/>
                </mxCell>
                <mxCell id="TiH0geAo-olVfuEoiiwe-46" value="Commit" style="swimlane;fontStyle=1;align=center;verticalAlign=top;childLayout=stackLayout;horizontal=1;startSize=26;horizontalStack=0;resizeParent=1;resizeParentMax=0;resizeLast=0;collapsible=1;marginBottom=0;fillColor=#d5e8d4;strokeColor=#82b366;gradientColor=#97d077;rounded=1;shadow=1;" parent="1" vertex="1">
                    <mxGeometry x="340" y="790" width="230" height="218" as="geometry"/>
                </mxCell>
                <mxCell id="ypCZ3P_r6VAvFXWBrY6j-45" value="- idCommit: UUID" style="text;strokeColor=none;fillColor=none;align=left;verticalAlign=top;spacingLeft=4;spacingRight=4;overflow=hidden;rotatable=0;points=[[0,0.5],[1,0.5]];portConstraint=eastwest;rounded=1;shadow=1;" parent="TiH0geAo-olVfuEoiiwe-46" vertex="1">
                    <mxGeometry y="26" width="230" height="26" as="geometry"/>
                </mxCell>
                <mxCell id="TiH0geAo-olVfuEoiiwe-47" value="- titulo: String" style="text;strokeColor=none;fillColor=none;align=left;verticalAlign=top;spacingLeft=4;spacingRight=4;overflow=hidden;rotatable=0;points=[[0,0.5],[1,0.5]];portConstraint=eastwest;rounded=1;shadow=1;" parent="TiH0geAo-olVfuEoiiwe-46" vertex="1">
                    <mxGeometry y="52" width="230" height="26" as="geometry"/>
                </mxCell>
                <mxCell id="TiH0geAo-olVfuEoiiwe-48" value="- texto: String" style="text;strokeColor=none;fillColor=none;align=left;verticalAlign=top;spacingLeft=4;spacingRight=4;overflow=hidden;rotatable=0;points=[[0,0.5],[1,0.5]];portConstraint=eastwest;rounded=1;shadow=1;" parent="TiH0geAo-olVfuEoiiwe-46" vertex="1">
                    <mxGeometry y="78" width="230" height="26" as="geometry"/>
                </mxCell>
                <mxCell id="TiH0geAo-olVfuEoiiwe-49" value="- fecha: Date" style="text;strokeColor=none;fillColor=none;align=left;verticalAlign=top;spacingLeft=4;spacingRight=4;overflow=hidden;rotatable=0;points=[[0,0.5],[1,0.5]];portConstraint=eastwest;rounded=1;shadow=1;" parent="TiH0geAo-olVfuEoiiwe-46" vertex="1">
                    <mxGeometry y="104" width="230" height="26" as="geometry"/>
                </mxCell>
                <mxCell id="TiH0geAo-olVfuEoiiwe-52" value="- autor: Programador" style="text;strokeColor=none;fillColor=none;align=left;verticalAlign=top;spacingLeft=4;spacingRight=4;overflow=hidden;rotatable=0;points=[[0,0.5],[1,0.5]];portConstraint=eastwest;rounded=1;shadow=1;" parent="TiH0geAo-olVfuEoiiwe-46" vertex="1">
                    <mxGeometry y="130" width="230" height="26" as="geometry"/>
                </mxCell>
                <mxCell id="TiH0geAo-olVfuEoiiwe-53" value="" style="line;strokeWidth=1;fillColor=none;align=left;verticalAlign=middle;spacingTop=-1;spacingLeft=3;spacingRight=3;rotatable=0;labelPosition=right;points=[];portConstraint=eastwest;rounded=1;shadow=1;" parent="TiH0geAo-olVfuEoiiwe-46" vertex="1">
                    <mxGeometry y="156" width="230" height="8" as="geometry"/>
                </mxCell>
                <mxCell id="TiH0geAo-olVfuEoiiwe-54" value="+ Getters And Setters" style="text;strokeColor=none;fillColor=none;align=left;verticalAlign=top;spacingLeft=4;spacingRight=4;overflow=hidden;rotatable=0;points=[[0,0.5],[1,0.5]];portConstraint=eastwest;rounded=1;shadow=1;" parent="TiH0geAo-olVfuEoiiwe-46" vertex="1">
                    <mxGeometry y="164" width="230" height="26" as="geometry"/>
                </mxCell>
                <mxCell id="TiH0geAo-olVfuEoiiwe-55" value="+ Constructor " style="text;strokeColor=none;fillColor=none;align=left;verticalAlign=top;spacingLeft=4;spacingRight=4;overflow=hidden;rotatable=0;points=[[0,0.5],[1,0.5]];portConstraint=eastwest;rounded=1;shadow=1;" parent="TiH0geAo-olVfuEoiiwe-46" vertex="1">
                    <mxGeometry y="190" width="230" height="28" as="geometry"/>
                </mxCell>
                <mxCell id="y__afnDM-_Wm_M2NOgLT-55" value="" style="edgeStyle=orthogonalEdgeStyle;rounded=1;orthogonalLoop=1;jettySize=auto;html=1;fontSize=18;endArrow=none;endFill=0;startArrow=classic;startFill=1;" parent="1" source="TiH0geAo-olVfuEoiiwe-57" target="y__afnDM-_Wm_M2NOgLT-48" edge="1">
                    <mxGeometry relative="1" as="geometry">
                        <mxPoint x="790" y="1280.9979999999996" as="targetPoint"/>
                        <Array as="points"/>
                        <mxPoint x="580" y="1307" as="sourcePoint"/>
                    </mxGeometry>
                </mxCell>
                <mxCell id="TiH0geAo-olVfuEoiiwe-57" value="Issue" style="swimlane;fontStyle=1;align=center;verticalAlign=top;childLayout=stackLayout;horizontal=1;startSize=26;horizontalStack=0;resizeParent=1;resizeParentMax=0;resizeLast=0;collapsible=1;marginBottom=0;fillColor=#d5e8d4;strokeColor=#82b366;gradientColor=#97d077;rounded=1;shadow=1;" parent="1" vertex="1">
                    <mxGeometry x="360" y="1140" width="220" height="216" as="geometry"/>
                </mxCell>
                <mxCell id="TiH0geAo-olVfuEoiiwe-58" value="- idIssue: UUID" style="text;strokeColor=none;fillColor=none;align=left;verticalAlign=top;spacingLeft=4;spacingRight=4;overflow=hidden;rotatable=0;points=[[0,0.5],[1,0.5]];portConstraint=eastwest;rounded=1;shadow=1;" parent="TiH0geAo-olVfuEoiiwe-57" vertex="1">
                    <mxGeometry y="26" width="220" height="26" as="geometry"/>
                </mxCell>
                <mxCell id="ypCZ3P_r6VAvFXWBrY6j-46" value="- titulo: String" style="text;strokeColor=none;fillColor=none;align=left;verticalAlign=top;spacingLeft=4;spacingRight=4;overflow=hidden;rotatable=0;points=[[0,0.5],[1,0.5]];portConstraint=eastwest;rounded=1;shadow=1;" parent="TiH0geAo-olVfuEoiiwe-57" vertex="1">
                    <mxGeometry y="52" width="220" height="26" as="geometry"/>
                </mxCell>
                <mxCell id="TiH0geAo-olVfuEoiiwe-59" value="- texto: String" style="text;strokeColor=none;fillColor=none;align=left;verticalAlign=top;spacingLeft=4;spacingRight=4;overflow=hidden;rotatable=0;points=[[0,0.5],[1,0.5]];portConstraint=eastwest;rounded=1;shadow=1;" parent="TiH0geAo-olVfuEoiiwe-57" vertex="1">
                    <mxGeometry y="78" width="220" height="26" as="geometry"/>
                </mxCell>
                <mxCell id="TiH0geAo-olVfuEoiiwe-60" value="- fecha: Date" style="text;strokeColor=none;fillColor=none;align=left;verticalAlign=top;spacingLeft=4;spacingRight=4;overflow=hidden;rotatable=0;points=[[0,0.5],[1,0.5]];portConstraint=eastwest;rounded=1;shadow=1;" parent="TiH0geAo-olVfuEoiiwe-57" vertex="1">
                    <mxGeometry y="104" width="220" height="26" as="geometry"/>
                </mxCell>
                <mxCell id="Bo5ASMbknL42rBoyFhP4-26" value="- estado: String" style="text;strokeColor=none;fillColor=none;align=left;verticalAlign=top;spacingLeft=4;spacingRight=4;overflow=hidden;rotatable=0;points=[[0,0.5],[1,0.5]];portConstraint=eastwest;rounded=1;shadow=1;" parent="TiH0geAo-olVfuEoiiwe-57" vertex="1">
                    <mxGeometry y="130" width="220" height="26" as="geometry"/>
                </mxCell>
                <mxCell id="TiH0geAo-olVfuEoiiwe-65" value="" style="line;strokeWidth=1;fillColor=none;align=left;verticalAlign=middle;spacingTop=-1;spacingLeft=3;spacingRight=3;rotatable=0;labelPosition=right;points=[];portConstraint=eastwest;rounded=1;shadow=1;" parent="TiH0geAo-olVfuEoiiwe-57" vertex="1">
                    <mxGeometry y="156" width="220" height="8" as="geometry"/>
                </mxCell>
                <mxCell id="TiH0geAo-olVfuEoiiwe-66" value="+ Getters And Setters" style="text;strokeColor=none;fillColor=none;align=left;verticalAlign=top;spacingLeft=4;spacingRight=4;overflow=hidden;rotatable=0;points=[[0,0.5],[1,0.5]];portConstraint=eastwest;rounded=1;shadow=1;" parent="TiH0geAo-olVfuEoiiwe-57" vertex="1">
                    <mxGeometry y="164" width="220" height="26" as="geometry"/>
                </mxCell>
                <mxCell id="TiH0geAo-olVfuEoiiwe-67" value="+ Constructor " style="text;strokeColor=none;fillColor=none;align=left;verticalAlign=top;spacingLeft=4;spacingRight=4;overflow=hidden;rotatable=0;points=[[0,0.5],[1,0.5]];portConstraint=eastwest;rounded=1;shadow=1;" parent="TiH0geAo-olVfuEoiiwe-57" vertex="1">
                    <mxGeometry y="190" width="220" height="26" as="geometry"/>
                </mxCell>
                <mxCell id="Bo5ASMbknL42rBoyFhP4-2" value="Tiene / Pertenece a" style="text;html=1;align=center;verticalAlign=middle;resizable=0;points=[];autosize=1;strokeColor=none;fillColor=none;rounded=1;shadow=1;" parent="1" vertex="1">
                    <mxGeometry x="475" y="70" width="120" height="20" as="geometry"/>
                </mxCell>
                <mxCell id="Bo5ASMbknL42rBoyFhP4-4" value="&lt;font style=&quot;font-size: 18px&quot;&gt;1&lt;/font&gt;" style="text;html=1;align=center;verticalAlign=middle;resizable=0;points=[];autosize=1;strokeColor=none;fillColor=none;rounded=1;shadow=1;" parent="1" vertex="1">
                    <mxGeometry x="230" y="60" width="30" height="20" as="geometry"/>
                </mxCell>
                <mxCell id="Bo5ASMbknL42rBoyFhP4-10" value="&lt;font style=&quot;font-size: 18px&quot;&gt;1..*&lt;/font&gt;" style="text;html=1;align=center;verticalAlign=middle;resizable=0;points=[];autosize=1;strokeColor=none;fillColor=none;rounded=1;shadow=1;" parent="1" vertex="1">
                    <mxGeometry x="180" y="385" width="40" height="20" as="geometry"/>
                </mxCell>
                <mxCell id="Bo5ASMbknL42rBoyFhP4-11" value="&lt;font style=&quot;font-size: 18px&quot;&gt;1&lt;/font&gt;" style="text;html=1;align=center;verticalAlign=middle;resizable=0;points=[];autosize=1;strokeColor=none;fillColor=none;rounded=1;shadow=1;" parent="1" vertex="1">
                    <mxGeometry x="130" y="230" width="30" height="20" as="geometry"/>
                </mxCell>
                <mxCell id="Bo5ASMbknL42rBoyFhP4-13" value="&lt;font style=&quot;font-size: 14px&quot;&gt;Tiene / Pertenece a &lt;/font&gt;" style="text;html=1;align=center;verticalAlign=middle;resizable=0;points=[];autosize=1;strokeColor=none;fillColor=none;rounded=1;shadow=1;rotation=90;" parent="1" vertex="1">
                    <mxGeometry x="75" y="330" width="140" height="20" as="geometry"/>
                </mxCell>
                <mxCell id="Bo5ASMbknL42rBoyFhP4-15" value="&lt;font style=&quot;font-size: 18px&quot;&gt;1&lt;/font&gt;" style="text;html=1;align=center;verticalAlign=middle;resizable=0;points=[];autosize=1;strokeColor=none;fillColor=none;rounded=1;shadow=1;" parent="1" vertex="1">
                    <mxGeometry x="130" y="780" width="30" height="20" as="geometry"/>
                </mxCell>
                <mxCell id="Bo5ASMbknL42rBoyFhP4-16" value="&lt;font style=&quot;font-size: 18px&quot;&gt;Pertenece a / Tiene&lt;/font&gt;" style="text;html=1;align=center;verticalAlign=middle;resizable=0;points=[];autosize=1;strokeColor=none;fillColor=none;rounded=1;shadow=1;rotation=-90;" parent="1" vertex="1">
                    <mxGeometry x="25" y="635" width="170" height="20" as="geometry"/>
                </mxCell>
                <mxCell id="Bo5ASMbknL42rBoyFhP4-17" value="&lt;font style=&quot;font-size: 18px&quot;&gt;1&lt;/font&gt;" style="text;html=1;align=center;verticalAlign=middle;resizable=0;points=[];autosize=1;strokeColor=none;fillColor=none;rounded=1;shadow=1;" parent="1" vertex="1">
                    <mxGeometry x="195" y="490" width="30" height="20" as="geometry"/>
                </mxCell>
                <mxCell id="Bo5ASMbknL42rBoyFhP4-19" value="&lt;font style=&quot;font-size: 24px&quot;&gt;*&lt;/font&gt;" style="text;html=1;align=center;verticalAlign=middle;resizable=0;points=[];autosize=1;strokeColor=none;fillColor=none;rounded=1;shadow=1;" parent="1" vertex="1">
                    <mxGeometry x="335" y="1265" width="20" height="20" as="geometry"/>
                </mxCell>
                <mxCell id="Bo5ASMbknL42rBoyFhP4-22" value="&lt;font style=&quot;font-size: 18px&quot;&gt;Tiene / Pertenece a&lt;/font&gt;" style="text;html=1;align=center;verticalAlign=middle;resizable=0;points=[];autosize=1;strokeColor=none;fillColor=none;rounded=1;shadow=1;" parent="1" vertex="1">
                    <mxGeometry x="150" y="1220" width="170" height="20" as="geometry"/>
                </mxCell>
                <mxCell id="Bo5ASMbknL42rBoyFhP4-24" value="&lt;font style=&quot;font-size: 24px&quot;&gt;*&lt;/font&gt;" style="text;html=1;align=center;verticalAlign=middle;resizable=0;points=[];autosize=1;strokeColor=none;fillColor=none;rounded=1;shadow=1;" parent="1" vertex="1">
                    <mxGeometry x="320" y="850" width="20" height="20" as="geometry"/>
                </mxCell>
                <mxCell id="Bo5ASMbknL42rBoyFhP4-30" value="&lt;font style=&quot;font-size: 18px&quot;&gt;1&lt;/font&gt;" style="text;html=1;align=center;verticalAlign=middle;resizable=0;points=[];autosize=1;strokeColor=none;fillColor=none;rounded=1;shadow=1;" parent="1" vertex="1">
                    <mxGeometry x="760" y="160" width="30" height="20" as="geometry"/>
                </mxCell>
                <mxCell id="Bo5ASMbknL42rBoyFhP4-31" value="&lt;font style=&quot;font-size: 24px&quot;&gt;*&lt;/font&gt;" style="text;html=1;align=center;verticalAlign=middle;resizable=0;points=[];autosize=1;strokeColor=none;fillColor=none;rounded=1;shadow=1;" parent="1" vertex="1">
                    <mxGeometry x="575" y="950" width="20" height="20" as="geometry"/>
                </mxCell>
                <mxCell id="Bo5ASMbknL42rBoyFhP4-32" value="&lt;font style=&quot;font-size: 18px&quot;&gt;Pertence a / Tiene&lt;/font&gt;" style="text;html=1;align=center;verticalAlign=middle;resizable=0;points=[];autosize=1;strokeColor=none;fillColor=none;rounded=1;shadow=1;" parent="1" vertex="1">
                    <mxGeometry x="715" y="940" width="160" height="20" as="geometry"/>
                </mxCell>
                <mxCell id="89NfcNjuYtu2z_Fh4dar-2" value="Participaciones" style="swimlane;fontStyle=1;align=center;verticalAlign=top;childLayout=stackLayout;horizontal=1;startSize=26;horizontalStack=0;resizeParent=1;resizeParentMax=0;resizeLast=0;collapsible=1;marginBottom=0;fillColor=#d5e8d4;strokeColor=#82b366;gradientColor=#97d077;rounded=1;shadow=1;" parent="1" vertex="1">
                    <mxGeometry x="630" y="666" width="243" height="60" as="geometry"/>
                </mxCell>
                <mxCell id="Gcp4ZpwurgfE3v8SKWam-3" value="- idParticipaciones: UUID" style="text;strokeColor=none;fillColor=none;align=left;verticalAlign=top;spacingLeft=4;spacingRight=4;overflow=hidden;rotatable=0;points=[[0,0.5],[1,0.5]];portConstraint=eastwest;rounded=1;shadow=1;" parent="89NfcNjuYtu2z_Fh4dar-2" vertex="1">
                    <mxGeometry y="26" width="243" height="26" as="geometry"/>
                </mxCell>
                <mxCell id="89NfcNjuYtu2z_Fh4dar-5" value="" style="line;strokeWidth=1;fillColor=none;align=left;verticalAlign=middle;spacingTop=-1;spacingLeft=3;spacingRight=3;rotatable=0;labelPosition=right;points=[];portConstraint=eastwest;rounded=1;shadow=1;" parent="89NfcNjuYtu2z_Fh4dar-2" vertex="1">
                    <mxGeometry y="52" width="243" height="8" as="geometry"/>
                </mxCell>
                <mxCell id="89NfcNjuYtu2z_Fh4dar-17" style="edgeStyle=orthogonalEdgeStyle;rounded=1;orthogonalLoop=1;jettySize=auto;html=1;fontSize=18;endArrow=none;endFill=0;shadow=1;startArrow=classic;startFill=1;" parent="1" source="TiH0geAo-olVfuEoiiwe-11" target="89NfcNjuYtu2z_Fh4dar-2" edge="1">
                    <mxGeometry relative="1" as="geometry">
                        <mxPoint x="660" y="555" as="targetPoint"/>
                        <Array as="points">
                            <mxPoint x="250" y="770"/>
                        </Array>
                    </mxGeometry>
                </mxCell>
                <mxCell id="89NfcNjuYtu2z_Fh4dar-18" value="1" style="text;html=1;align=center;verticalAlign=middle;resizable=0;points=[];autosize=1;strokeColor=none;fillColor=none;fontSize=18;shadow=1;" parent="1" vertex="1">
                    <mxGeometry x="220" y="600" width="30" height="30" as="geometry"/>
                </mxCell>
                <mxCell id="89NfcNjuYtu2z_Fh4dar-22" value="1..*" style="text;html=1;align=center;verticalAlign=middle;resizable=0;points=[];autosize=1;strokeColor=none;fillColor=none;fontSize=18;shadow=1;" parent="1" vertex="1">
                    <mxGeometry x="790" y="630" width="40" height="30" as="geometry"/>
                </mxCell>
                <mxCell id="89NfcNjuYtu2z_Fh4dar-23" value="&lt;font style=&quot;font-size: 18px&quot;&gt;Pertenecen a / tiene&lt;br&gt;&lt;/font&gt;" style="text;html=1;align=center;verticalAlign=middle;resizable=0;points=[];autosize=1;strokeColor=none;fillColor=none;fontSize=18;shadow=1;rotation=-90;" parent="1" vertex="1">
                    <mxGeometry x="766.5" y="500" width="180" height="30" as="geometry"/>
                </mxCell>
                <mxCell id="89NfcNjuYtu2z_Fh4dar-25" value="&lt;font style=&quot;font-size: 18px&quot;&gt;usa / pertenece a&amp;nbsp; &lt;br&gt;&lt;/font&gt;" style="text;html=1;align=center;verticalAlign=middle;resizable=0;points=[];autosize=1;strokeColor=none;fillColor=none;fontSize=18;shadow=1;" parent="1" vertex="1">
                    <mxGeometry x="289" y="740" width="160" height="30" as="geometry"/>
                </mxCell>
                <mxCell id="89NfcNjuYtu2z_Fh4dar-30" value="&lt;font style=&quot;font-size: 18px&quot;&gt;1&lt;/font&gt;" style="text;html=1;align=center;verticalAlign=middle;resizable=0;points=[];autosize=1;strokeColor=none;fillColor=none;fontSize=24;shadow=1;" parent="1" vertex="1">
                    <mxGeometry x="873" y="17" width="30" height="40" as="geometry"/>
                </mxCell>
                <mxCell id="89NfcNjuYtu2z_Fh4dar-33" value="tiene de jefe a / dirige" style="text;html=1;align=center;verticalAlign=middle;resizable=0;points=[];autosize=1;strokeColor=none;fillColor=none;fontSize=14;shadow=1;" parent="1" vertex="1">
                    <mxGeometry x="445" width="150" height="20" as="geometry"/>
                </mxCell>
                <mxCell id="89NfcNjuYtu2z_Fh4dar-29" style="edgeStyle=orthogonalEdgeStyle;rounded=1;orthogonalLoop=1;jettySize=auto;html=1;fontSize=24;endArrow=classic;endFill=1;shadow=1;exitX=0.368;exitY=0.001;exitDx=0;exitDy=0;exitPerimeter=0;startArrow=classic;startFill=1;" parent="1" source="TiH0geAo-olVfuEoiiwe-23" target="TiH0geAo-olVfuEoiiwe-1" edge="1">
                    <mxGeometry relative="1" as="geometry">
                        <mxPoint x="695" y="10" as="targetPoint"/>
                        <Array as="points">
                            <mxPoint x="879" y="20"/>
                            <mxPoint x="110" y="20"/>
                        </Array>
                    </mxGeometry>
                </mxCell>
                <mxCell id="y__afnDM-_Wm_M2NOgLT-1" value="&lt;font style=&quot;font-size: 18px&quot;&gt;0..1&lt;/font&gt;" style="text;html=1;align=center;verticalAlign=middle;resizable=0;points=[];autosize=1;strokeColor=none;fillColor=none;shadow=1;" parent="1" vertex="1">
                    <mxGeometry x="60" y="12" width="50" height="20" as="geometry"/>
                </mxCell>
                <mxCell id="y__afnDM-_Wm_M2NOgLT-3" value="" style="endArrow=diamondThin;endFill=1;endSize=24;html=1;rounded=1;fontSize=18;entryX=0.5;entryY=1;entryDx=0;entryDy=0;sketch=0;shadow=1;jumpSize=6;labelBorderColor=none;startArrow=classic;startFill=1;" parent="1" source="TiH0geAo-olVfuEoiiwe-57" target="TiH0geAo-olVfuEoiiwe-34" edge="1">
                    <mxGeometry width="160" relative="1" as="geometry">
                        <mxPoint x="360" y="1309" as="sourcePoint"/>
                        <mxPoint x="340" y="920" as="targetPoint"/>
                        <Array as="points">
                            <mxPoint x="130" y="1248"/>
                        </Array>
                    </mxGeometry>
                </mxCell>
                <mxCell id="y__afnDM-_Wm_M2NOgLT-4" value="1" style="text;html=1;align=center;verticalAlign=middle;resizable=0;points=[];autosize=1;strokeColor=none;fillColor=none;fontSize=18;shadow=1;" parent="1" vertex="1">
                    <mxGeometry x="150" y="950" width="30" height="30" as="geometry"/>
                </mxCell>
                <mxCell id="y__afnDM-_Wm_M2NOgLT-5" value="" style="endArrow=diamondThin;endFill=1;endSize=24;html=1;rounded=0;fontSize=18;sketch=0;shadow=1;jumpSize=6;labelBorderColor=none;startArrow=classic;startFill=1;exitX=-0.003;exitY=0.205;exitDx=0;exitDy=0;exitPerimeter=0;" parent="1" source="TiH0geAo-olVfuEoiiwe-48" target="TiH0geAo-olVfuEoiiwe-34" edge="1">
                    <mxGeometry width="160" relative="1" as="geometry">
                        <mxPoint x="340" y="937" as="sourcePoint"/>
                        <mxPoint x="230.20000000000005" y="936.626" as="targetPoint"/>
                        <Array as="points"/>
                    </mxGeometry>
                </mxCell>
                <mxCell id="y__afnDM-_Wm_M2NOgLT-7" value="1" style="text;html=1;align=center;verticalAlign=middle;resizable=0;points=[];autosize=1;strokeColor=none;fillColor=none;fontSize=18;shadow=1;" parent="1" vertex="1">
                    <mxGeometry x="230" y="840" width="30" height="30" as="geometry"/>
                </mxCell>
                <mxCell id="y__afnDM-_Wm_M2NOgLT-9" value="&lt;font style=&quot;font-size: 11px&quot;&gt;Tiene / Pertenece a&lt;/font&gt;" style="text;html=1;align=center;verticalAlign=middle;resizable=0;points=[];autosize=1;strokeColor=none;fillColor=none;rounded=1;shadow=1;" parent="1" vertex="1">
                    <mxGeometry x="230" y="889" width="110" height="20" as="geometry"/>
                </mxCell>
                <mxCell id="y__afnDM-_Wm_M2NOgLT-11" value="" style="endArrow=diamondThin;endFill=0;endSize=24;html=1;rounded=1;shadow=1;labelBorderColor=none;sketch=0;fontSize=11;jumpSize=6;entryX=1;entryY=0.5;entryDx=0;entryDy=0;startArrow=classic;startFill=1;" parent="1" source="TiH0geAo-olVfuEoiiwe-24" target="ypCZ3P_r6VAvFXWBrY6j-39" edge="1">
                    <mxGeometry width="160" relative="1" as="geometry">
                        <mxPoint x="190" y="290" as="sourcePoint"/>
                        <mxPoint x="350" y="290" as="targetPoint"/>
                    </mxGeometry>
                </mxCell>
                <mxCell id="y__afnDM-_Wm_M2NOgLT-13" value="" style="endArrow=diamondThin;endFill=1;endSize=24;html=1;rounded=1;fontSize=18;sketch=0;shadow=1;jumpSize=6;labelBorderColor=none;exitX=0.5;exitY=0;exitDx=0;exitDy=0;entryX=0;entryY=0.5;entryDx=0;entryDy=0;startArrow=classic;startFill=1;" parent="1" source="TiH0geAo-olVfuEoiiwe-34" edge="1">
                    <mxGeometry width="160" relative="1" as="geometry">
                        <mxPoint x="107.93000000000029" y="486.00599999999986" as="sourcePoint"/>
                        <mxPoint x="230" y="475" as="targetPoint"/>
                        <Array as="points">
                            <mxPoint x="130" y="475"/>
                        </Array>
                    </mxGeometry>
                </mxCell>
                <mxCell id="y__afnDM-_Wm_M2NOgLT-15" value="" style="endArrow=diamondThin;endFill=1;endSize=24;html=1;rounded=1;fontSize=18;sketch=0;shadow=1;jumpSize=6;labelBorderColor=none;startArrow=classic;startFill=1;entryX=0.5;entryY=1;entryDx=0;entryDy=0;entryPerimeter=0;" parent="1" source="TiH0geAo-olVfuEoiiwe-11" target="TiH0geAo-olVfuEoiiwe-10" edge="1">
                    <mxGeometry width="160" relative="1" as="geometry">
                        <mxPoint x="140" y="619.9999999999998" as="sourcePoint"/>
                        <mxPoint x="110" y="330" as="targetPoint"/>
                        <Array as="points">
                            <mxPoint x="120" y="414"/>
                        </Array>
                    </mxGeometry>
                </mxCell>
                <mxCell id="y__afnDM-_Wm_M2NOgLT-28" value="Conocimiento" style="swimlane;fontStyle=1;align=center;verticalAlign=top;childLayout=stackLayout;horizontal=1;startSize=26;horizontalStack=0;resizeParent=1;resizeParentMax=0;resizeLast=0;collapsible=1;marginBottom=0;fillColor=#d5e8d4;strokeColor=#82b366;gradientColor=#97d077;rounded=1;shadow=1;" parent="1" vertex="1">
                    <mxGeometry x="352.5" y="190" width="280" height="60" as="geometry"/>
                </mxCell>
                <mxCell id="y__afnDM-_Wm_M2NOgLT-37" value="" style="line;strokeWidth=1;fillColor=none;align=left;verticalAlign=middle;spacingTop=-1;spacingLeft=3;spacingRight=3;rotatable=0;labelPosition=right;points=[];portConstraint=eastwest;rounded=1;shadow=1;" parent="y__afnDM-_Wm_M2NOgLT-28" vertex="1">
                    <mxGeometry y="26" width="280" height="8" as="geometry"/>
                </mxCell>
                <mxCell id="Gcp4ZpwurgfE3v8SKWam-1" value="- idConocimiento: UUID" style="text;strokeColor=none;fillColor=none;align=left;verticalAlign=top;spacingLeft=4;spacingRight=4;overflow=hidden;rotatable=0;points=[[0,0.5],[1,0.5]];portConstraint=eastwest;rounded=1;shadow=1;" parent="y__afnDM-_Wm_M2NOgLT-28" vertex="1">
                    <mxGeometry y="34" width="280" height="26" as="geometry"/>
                </mxCell>
                <mxCell id="y__afnDM-_Wm_M2NOgLT-43" value="" style="endArrow=classic;html=1;rounded=1;fontSize=24;exitX=0.304;exitY=1.077;exitDx=0;exitDy=0;exitPerimeter=0;" parent="1" source="TiH0geAo-olVfuEoiiwe-20" target="ypCZ3P_r6VAvFXWBrY6j-2" edge="1">
                    <mxGeometry width="50" height="50" relative="1" as="geometry">
                        <mxPoint x="320" y="570" as="sourcePoint"/>
                        <mxPoint x="310" y="-100" as="targetPoint"/>
                        <Array as="points">
                            <mxPoint x="300" y="619"/>
                        </Array>
                    </mxGeometry>
                </mxCell>
                <mxCell id="y__afnDM-_Wm_M2NOgLT-42" value="" style="endArrow=classic;html=1;rounded=1;fontSize=24;exitX=0;exitY=0.5;exitDx=0;exitDy=0;entryX=1.004;entryY=1.127;entryDx=0;entryDy=0;entryPerimeter=0;" parent="1" source="TiH0geAo-olVfuEoiiwe-45" edge="1">
                    <mxGeometry width="50" height="50" relative="1" as="geometry">
                        <mxPoint x="790" y="200" as="sourcePoint"/>
                        <mxPoint x="633.6199999999999" y="201.30200000000002" as="targetPoint"/>
                        <Array as="points">
                            <mxPoint x="780" y="180"/>
                        </Array>
                    </mxGeometry>
                </mxCell>
                <mxCell id="y__afnDM-_Wm_M2NOgLT-44" value="&lt;font style=&quot;font-size: 18px&quot;&gt;1&lt;/font&gt;" style="text;html=1;align=center;verticalAlign=middle;resizable=0;points=[];autosize=1;strokeColor=none;fillColor=none;fontSize=24;" parent="1" vertex="1">
                    <mxGeometry x="843" y="295" width="30" height="40" as="geometry"/>
                </mxCell>
                <mxCell id="y__afnDM-_Wm_M2NOgLT-48" value="Creaciones" style="swimlane;fontStyle=1;align=center;verticalAlign=top;childLayout=stackLayout;horizontal=1;startSize=26;horizontalStack=0;resizeParent=1;resizeParentMax=0;resizeLast=0;collapsible=1;marginBottom=0;fillColor=#d5e8d4;strokeColor=#82b366;gradientColor=#97d077;rounded=1;shadow=1;" parent="1" vertex="1">
                    <mxGeometry x="790" y="1231" width="243" height="60" as="geometry"/>
                </mxCell>
                <mxCell id="Gcp4ZpwurgfE3v8SKWam-4" value="- idCreaciones: UUID" style="text;strokeColor=none;fillColor=none;align=left;verticalAlign=top;spacingLeft=4;spacingRight=4;overflow=hidden;rotatable=0;points=[[0,0.5],[1,0.5]];portConstraint=eastwest;rounded=1;shadow=1;" parent="y__afnDM-_Wm_M2NOgLT-48" vertex="1">
                    <mxGeometry y="26" width="243" height="26" as="geometry"/>
                </mxCell>
                <mxCell id="y__afnDM-_Wm_M2NOgLT-51" value="" style="line;strokeWidth=1;fillColor=none;align=left;verticalAlign=middle;spacingTop=-1;spacingLeft=3;spacingRight=3;rotatable=0;labelPosition=right;points=[];portConstraint=eastwest;rounded=1;shadow=1;" parent="y__afnDM-_Wm_M2NOgLT-48" vertex="1">
                    <mxGeometry y="52" width="243" height="8" as="geometry"/>
                </mxCell>
                <mxCell id="y__afnDM-_Wm_M2NOgLT-56" value="" style="edgeStyle=orthogonalEdgeStyle;rounded=1;orthogonalLoop=1;jettySize=auto;html=1;fontSize=18;endArrow=none;endFill=0;startArrow=classic;startFill=1;" parent="1" source="TiH0geAo-olVfuEoiiwe-23" target="y__afnDM-_Wm_M2NOgLT-48" edge="1">
                    <mxGeometry relative="1" as="geometry">
                        <mxPoint x="1070" y="680" as="sourcePoint"/>
                        <mxPoint x="1265" y="680" as="targetPoint"/>
                        <Array as="points">
                            <mxPoint x="1070" y="204"/>
                            <mxPoint x="1070" y="1117"/>
                        </Array>
                    </mxGeometry>
                </mxCell>
                <mxCell id="y__afnDM-_Wm_M2NOgLT-57" value="1" style="text;html=1;align=center;verticalAlign=middle;resizable=0;points=[];autosize=1;strokeColor=none;fillColor=none;fontSize=18;" parent="1" vertex="1">
                    <mxGeometry x="1020" y="165" width="30" height="30" as="geometry"/>
                </mxCell>
                <mxCell id="y__afnDM-_Wm_M2NOgLT-58" value="&lt;font style=&quot;font-size: 24px&quot;&gt;*&lt;/font&gt;" style="text;html=1;align=center;verticalAlign=middle;resizable=0;points=[];autosize=1;strokeColor=none;fillColor=none;fontSize=18;" parent="1" vertex="1">
                    <mxGeometry x="916.5" y="1201" width="20" height="30" as="geometry"/>
                </mxCell>
                <mxCell id="y__afnDM-_Wm_M2NOgLT-59" value="&lt;font size=&quot;3&quot;&gt;1..*&lt;/font&gt;" style="text;html=1;align=center;verticalAlign=middle;resizable=0;points=[];autosize=1;strokeColor=none;fillColor=none;fontSize=24;" parent="1" vertex="1">
                    <mxGeometry x="746.5" y="50" width="40" height="40" as="geometry"/>
                </mxCell>
                <mxCell id="y__afnDM-_Wm_M2NOgLT-60" value="1" style="text;html=1;align=center;verticalAlign=middle;resizable=0;points=[];autosize=1;strokeColor=none;fillColor=none;fontSize=18;" parent="1" vertex="1">
                    <mxGeometry x="756.5" y="1210" width="30" height="30" as="geometry"/>
                </mxCell>
                <mxCell id="y__afnDM-_Wm_M2NOgLT-61" value="1" style="text;html=1;align=center;verticalAlign=middle;resizable=0;points=[];autosize=1;strokeColor=none;fillColor=none;fontSize=18;" parent="1" vertex="1">
                    <mxGeometry x="580" y="1210" width="30" height="30" as="geometry"/>
                </mxCell>
                <mxCell id="ypCZ3P_r6VAvFXWBrY6j-27" style="edgeStyle=orthogonalEdgeStyle;rounded=0;orthogonalLoop=1;jettySize=auto;html=1;fontSize=18;" parent="1" source="ypCZ3P_r6VAvFXWBrY6j-2" target="ypCZ3P_r6VAvFXWBrY6j-18" edge="1">
                    <mxGeometry relative="1" as="geometry">
                        <Array as="points">
                            <mxPoint x="493" y="660"/>
                            <mxPoint x="670" y="660"/>
                        </Array>
                    </mxGeometry>
                </mxCell>
                <mxCell id="ypCZ3P_r6VAvFXWBrY6j-2" value="Utilidades" style="swimlane;fontStyle=1;align=center;verticalAlign=top;childLayout=stackLayout;horizontal=1;startSize=26;horizontalStack=0;resizeParent=1;resizeParentMax=0;resizeLast=0;collapsible=1;marginBottom=0;fillColor=#d5e8d4;strokeColor=#82b366;gradientColor=#97d077;rounded=1;shadow=1;" parent="1" vertex="1">
                    <mxGeometry x="375" y="585" width="235" height="60" as="geometry"/>
                </mxCell>
                <mxCell id="Gcp4ZpwurgfE3v8SKWam-2" value="- idUtilidades: UUID" style="text;strokeColor=none;fillColor=none;align=left;verticalAlign=top;spacingLeft=4;spacingRight=4;overflow=hidden;rotatable=0;points=[[0,0.5],[1,0.5]];portConstraint=eastwest;rounded=1;shadow=1;" parent="ypCZ3P_r6VAvFXWBrY6j-2" vertex="1">
                    <mxGeometry y="26" width="235" height="26" as="geometry"/>
                </mxCell>
                <mxCell id="ypCZ3P_r6VAvFXWBrY6j-6" value="" style="line;strokeWidth=1;fillColor=none;align=left;verticalAlign=middle;spacingTop=-1;spacingLeft=3;spacingRight=3;rotatable=0;labelPosition=right;points=[];portConstraint=eastwest;rounded=1;shadow=1;" parent="ypCZ3P_r6VAvFXWBrY6j-2" vertex="1">
                    <mxGeometry y="52" width="235" height="8" as="geometry"/>
                </mxCell>
                <mxCell id="ypCZ3P_r6VAvFXWBrY6j-9" value="&lt;font style=&quot;font-size: 18px&quot;&gt;1..*&lt;/font&gt;" style="text;html=1;align=center;verticalAlign=middle;resizable=0;points=[];autosize=1;strokeColor=none;fillColor=none;" parent="1" vertex="1">
                    <mxGeometry x="590" y="750" width="40" height="20" as="geometry"/>
                </mxCell>
                <mxCell id="ypCZ3P_r6VAvFXWBrY6j-26" value="" style="edgeStyle=orthogonalEdgeStyle;rounded=0;orthogonalLoop=1;jettySize=auto;html=1;fontSize=18;entryX=0.544;entryY=-0.025;entryDx=0;entryDy=0;entryPerimeter=0;" parent="1" source="y__afnDM-_Wm_M2NOgLT-28" target="ypCZ3P_r6VAvFXWBrY6j-18" edge="1">
                    <mxGeometry relative="1" as="geometry">
                        <Array as="points">
                            <mxPoint x="480" y="337"/>
                            <mxPoint x="680" y="337"/>
                        </Array>
                    </mxGeometry>
                </mxCell>
                <mxCell id="ypCZ3P_r6VAvFXWBrY6j-18" value="Tecnologia" style="swimlane;fontStyle=1;align=center;verticalAlign=top;childLayout=stackLayout;horizontal=1;startSize=26;horizontalStack=0;resizeParent=1;resizeParentMax=0;resizeLast=0;collapsible=1;marginBottom=0;fillColor=#d5e8d4;strokeColor=#82b366;gradientColor=#97d077;rounded=1;shadow=1;" parent="1" vertex="1">
                    <mxGeometry x="560" y="400" width="220" height="138" as="geometry"/>
                </mxCell>
                <mxCell id="ypCZ3P_r6VAvFXWBrY6j-19" value="- idTecnologia: UUID" style="text;strokeColor=none;fillColor=none;align=left;verticalAlign=top;spacingLeft=4;spacingRight=4;overflow=hidden;rotatable=0;points=[[0,0.5],[1,0.5]];portConstraint=eastwest;rounded=1;shadow=1;" parent="ypCZ3P_r6VAvFXWBrY6j-18" vertex="1">
                    <mxGeometry y="26" width="220" height="26" as="geometry"/>
                </mxCell>
                <mxCell id="ypCZ3P_r6VAvFXWBrY6j-44" value="- nombre: String" style="text;strokeColor=none;fillColor=none;align=left;verticalAlign=top;spacingLeft=4;spacingRight=4;overflow=hidden;rotatable=0;points=[[0,0.5],[1,0.5]];portConstraint=eastwest;rounded=1;shadow=1;" parent="ypCZ3P_r6VAvFXWBrY6j-18" vertex="1">
                    <mxGeometry y="52" width="220" height="26" as="geometry"/>
                </mxCell>
                <mxCell id="ypCZ3P_r6VAvFXWBrY6j-21" value="" style="line;strokeWidth=1;fillColor=none;align=left;verticalAlign=middle;spacingTop=-1;spacingLeft=3;spacingRight=3;rotatable=0;labelPosition=right;points=[];portConstraint=eastwest;rounded=1;shadow=1;" parent="ypCZ3P_r6VAvFXWBrY6j-18" vertex="1">
                    <mxGeometry y="78" width="220" height="8" as="geometry"/>
                </mxCell>
                <mxCell id="ypCZ3P_r6VAvFXWBrY6j-22" value="+ Getters And Setters" style="text;strokeColor=none;fillColor=none;align=left;verticalAlign=top;spacingLeft=4;spacingRight=4;overflow=hidden;rotatable=0;points=[[0,0.5],[1,0.5]];portConstraint=eastwest;rounded=1;shadow=1;" parent="ypCZ3P_r6VAvFXWBrY6j-18" vertex="1">
                    <mxGeometry y="86" width="220" height="26" as="geometry"/>
                </mxCell>
                <mxCell id="ypCZ3P_r6VAvFXWBrY6j-23" value="+ Constructor " style="text;strokeColor=none;fillColor=none;align=left;verticalAlign=top;spacingLeft=4;spacingRight=4;overflow=hidden;rotatable=0;points=[[0,0.5],[1,0.5]];portConstraint=eastwest;rounded=1;shadow=1;" parent="ypCZ3P_r6VAvFXWBrY6j-18" vertex="1">
                    <mxGeometry y="112" width="220" height="26" as="geometry"/>
                </mxCell>
                <mxCell id="ypCZ3P_r6VAvFXWBrY6j-28" value="1..*" style="text;html=1;align=center;verticalAlign=middle;resizable=0;points=[];autosize=1;strokeColor=none;fillColor=none;fontSize=18;" parent="1" vertex="1">
                    <mxGeometry x="335" y="585" width="40" height="30" as="geometry"/>
                </mxCell>
                <mxCell id="ypCZ3P_r6VAvFXWBrY6j-29" value="1" style="text;html=1;align=center;verticalAlign=middle;resizable=0;points=[];autosize=1;strokeColor=none;fillColor=none;fontSize=18;" parent="1" vertex="1">
                    <mxGeometry x="300" y="522" width="30" height="30" as="geometry"/>
                </mxCell>
                <mxCell id="ypCZ3P_r6VAvFXWBrY6j-30" value="1" style="text;html=1;align=center;verticalAlign=middle;resizable=0;points=[];autosize=1;strokeColor=none;fillColor=none;fontSize=18;" parent="1" vertex="1">
                    <mxGeometry x="490" y="660" width="30" height="30" as="geometry"/>
                </mxCell>
                <mxCell id="ypCZ3P_r6VAvFXWBrY6j-31" value="*" style="text;html=1;align=center;verticalAlign=middle;resizable=0;points=[];autosize=1;strokeColor=none;fillColor=none;fontSize=18;" parent="1" vertex="1">
                    <mxGeometry x="675" y="538" width="20" height="30" as="geometry"/>
                </mxCell>
                <mxCell id="ypCZ3P_r6VAvFXWBrY6j-32" value="1" style="text;html=1;align=center;verticalAlign=middle;resizable=0;points=[];autosize=1;strokeColor=none;fillColor=none;fontSize=18;" parent="1" vertex="1">
                    <mxGeometry x="645" y="165" width="30" height="30" as="geometry"/>
                </mxCell>
                <mxCell id="ypCZ3P_r6VAvFXWBrY6j-33" value="1" style="text;html=1;align=center;verticalAlign=middle;resizable=0;points=[];autosize=1;strokeColor=none;fillColor=none;fontSize=18;" parent="1" vertex="1">
                    <mxGeometry x="477.5" y="250" width="30" height="30" as="geometry"/>
                </mxCell>
                <mxCell id="ypCZ3P_r6VAvFXWBrY6j-34" value="*" style="text;html=1;align=center;verticalAlign=middle;resizable=0;points=[];autosize=1;strokeColor=none;fillColor=none;fontSize=18;" parent="1" vertex="1">
                    <mxGeometry x="690" y="365" width="20" height="30" as="geometry"/>
                </mxCell>
                <mxCell id="ypCZ3P_r6VAvFXWBrY6j-37" value="1" style="text;html=1;align=center;verticalAlign=middle;resizable=0;points=[];autosize=1;strokeColor=none;fillColor=none;fontSize=18;" parent="1" vertex="1">
                    <mxGeometry x="946.5" y="300" width="30" height="30" as="geometry"/>
                </mxCell>
                <mxCell id="ypCZ3P_r6VAvFXWBrY6j-47" value="tiene / realiza" style="text;html=1;align=center;verticalAlign=middle;resizable=0;points=[];autosize=1;strokeColor=none;fillColor=none;fontSize=18;" parent="1" vertex="1">
                    <mxGeometry x="930" y="1080" width="120" height="30" as="geometry"/>
                </mxCell>
                <mxCell id="ypCZ3P_r6VAvFXWBrY6j-48" value="&lt;font style=&quot;font-size: 18px&quot;&gt;tiene&lt;/font&gt;" style="text;html=1;align=center;verticalAlign=middle;resizable=0;points=[];autosize=1;strokeColor=none;fillColor=none;fontSize=18;" parent="1" vertex="1">
                    <mxGeometry x="660" y="1260" width="50" height="30" as="geometry"/>
                </mxCell>
                <mxCell id="ypCZ3P_r6VAvFXWBrY6j-49" value="tiene" style="text;html=1;align=center;verticalAlign=middle;resizable=0;points=[];autosize=1;strokeColor=none;fillColor=none;fontSize=18;" parent="1" vertex="1">
                    <mxGeometry x="290" y="615" width="50" height="30" as="geometry"/>
                </mxCell>
                <mxCell id="ypCZ3P_r6VAvFXWBrY6j-50" value="tiene" style="text;html=1;align=center;verticalAlign=middle;resizable=0;points=[];autosize=1;strokeColor=none;fillColor=none;fontSize=18;" parent="1" vertex="1">
                    <mxGeometry x="675" y="585" width="50" height="30" as="geometry"/>
                </mxCell>
                <mxCell id="ypCZ3P_r6VAvFXWBrY6j-51" value="tiene" style="text;html=1;align=center;verticalAlign=middle;resizable=0;points=[];autosize=1;strokeColor=none;fillColor=none;fontSize=18;" parent="1" vertex="1">
                    <mxGeometry x="535" y="305" width="50" height="30" as="geometry"/>
                </mxCell>
                <mxCell id="2" value="Login" style="swimlane;fontStyle=1;align=center;verticalAlign=top;childLayout=stackLayout;horizontal=1;startSize=26;horizontalStack=0;resizeParent=1;resizeParentMax=0;resizeLast=0;collapsible=1;marginBottom=0;fillColor=#d5e8d4;strokeColor=#82b366;gradientColor=#97d077;rounded=1;shadow=1;" parent="1" vertex="1">
                    <mxGeometry x="1310" y="48" width="215" height="190" as="geometry"/>
                </mxCell>
                <mxCell id="3" value="- idUsuario: UUID" style="text;strokeColor=none;fillColor=none;align=left;verticalAlign=top;spacingLeft=4;spacingRight=4;overflow=hidden;rotatable=0;points=[[0,0.5],[1,0.5]];portConstraint=eastwest;rounded=1;shadow=1;" parent="2" vertex="1">
                    <mxGeometry y="26" width="215" height="26" as="geometry"/>
                </mxCell>
                <mxCell id="4" value="- instanteIdentificacion: Timestamp" style="text;strokeColor=none;fillColor=none;align=left;verticalAlign=top;spacingLeft=4;spacingRight=4;overflow=hidden;rotatable=0;points=[[0,0.5],[1,0.5]];portConstraint=eastwest;rounded=1;shadow=1;" parent="2" vertex="1">
                    <mxGeometry y="52" width="215" height="26" as="geometry"/>
                </mxCell>
                <mxCell id="5" value="- token: UUID" style="text;strokeColor=none;fillColor=none;align=left;verticalAlign=top;spacingLeft=4;spacingRight=4;overflow=hidden;rotatable=0;points=[[0,0.5],[1,0.5]];portConstraint=eastwest;rounded=1;shadow=1;" parent="2" vertex="1">
                    <mxGeometry y="78" width="215" height="26" as="geometry"/>
                </mxCell>
                <mxCell id="6" value="- activo: Boolean" style="text;strokeColor=none;fillColor=none;align=left;verticalAlign=top;spacingLeft=4;spacingRight=4;overflow=hidden;rotatable=0;points=[[0,0.5],[1,0.5]];portConstraint=eastwest;rounded=1;shadow=1;" parent="2" vertex="1">
                    <mxGeometry y="104" width="215" height="26" as="geometry"/>
                </mxCell>
                <mxCell id="7" value="" style="line;strokeWidth=1;fillColor=none;align=left;verticalAlign=middle;spacingTop=-1;spacingLeft=3;spacingRight=3;rotatable=0;labelPosition=right;points=[];portConstraint=eastwest;rounded=1;shadow=1;" parent="2" vertex="1">
                    <mxGeometry y="130" width="215" height="8" as="geometry"/>
                </mxCell>
                <mxCell id="8" value="+ Getters And Setters" style="text;strokeColor=none;fillColor=none;align=left;verticalAlign=top;spacingLeft=4;spacingRight=4;overflow=hidden;rotatable=0;points=[[0,0.5],[1,0.5]];portConstraint=eastwest;rounded=1;shadow=1;" parent="2" vertex="1">
                    <mxGeometry y="138" width="215" height="26" as="geometry"/>
                </mxCell>
                <mxCell id="9" value="+ Constructor " style="text;strokeColor=none;fillColor=none;align=left;verticalAlign=top;spacingLeft=4;spacingRight=4;overflow=hidden;rotatable=0;points=[[0,0.5],[1,0.5]];portConstraint=eastwest;rounded=1;shadow=1;" parent="2" vertex="1">
                    <mxGeometry y="164" width="215" height="26" as="geometry"/>
                </mxCell>
                <mxCell id="10" value="" style="edgeStyle=orthogonalEdgeStyle;rounded=1;orthogonalLoop=1;jettySize=auto;html=1;fontSize=18;endArrow=none;endFill=0;startArrow=diamondThin;startFill=1;exitX=1;exitY=0.5;exitDx=0;exitDy=0;endSize=24;startSize=24;entryX=0;entryY=0.5;entryDx=0;entryDy=0;" parent="1" source="TiH0geAo-olVfuEoiiwe-25" target="5" edge="1">
                    <mxGeometry relative="1" as="geometry">
                        <mxPoint x="1243.53" y="305" as="sourcePoint"/>
                        <mxPoint x="1370" y="150" as="targetPoint"/>
                        <Array as="points">
                            <mxPoint x="1310" y="139"/>
                            <mxPoint x="1310" y="141"/>
                        </Array>
                    </mxGeometry>
                </mxCell>
                <mxCell id="14" value="0..1" style="text;html=1;align=center;verticalAlign=middle;resizable=0;points=[];autosize=1;strokeColor=none;fillColor=none;fontSize=18;" parent="1" vertex="1">
                    <mxGeometry x="1020" y="100" width="50" height="30" as="geometry"/>
                </mxCell>
                <mxCell id="15" value="0..1" style="text;html=1;align=center;verticalAlign=middle;resizable=0;points=[];autosize=1;strokeColor=none;fillColor=none;fontSize=18;" parent="1" vertex="1">
                    <mxGeometry x="1250" y="100" width="50" height="30" as="geometry"/>
                </mxCell>
                <mxCell id="16" value="realiza/ es realizado" style="text;html=1;align=center;verticalAlign=middle;resizable=0;points=[];autosize=1;strokeColor=none;fillColor=none;rounded=1;shadow=1;fontSize=14;" vertex="1" parent="1">
                    <mxGeometry x="1100" y="118" width="140" height="20" as="geometry"/>
                </mxCell>
            </root>
        </mxGraphModel>
    </diagram>
</mxfile>